# xmcd
#
# Track frame offsets: 
#        150
#        23665
#        39336
#
# Disc length: 815 seconds
#
# Revision: 8
# Processed by: cddbd v1.5.2PL0 Copyright (c) Steve Scherf et al.
# Submitted via: ExactAudioCopy v0.99pb5
#
DISCID=16032d03
DTITLE=Kings of Leon - Come around sundown (Limited deluxe edition)
DYEAR=2010
DGENRE=Rock
TTITLE0=Celebration
TTITLE1=Radioactive (Choir remix)
TTITLE2=Closer (Presets remix)
EXTD=
EXTT0=
EXTT1=
EXTT2=
PLAYORDER=
